HIERARCHY
ROOT Hips
{
	OFFSET 0.00000 0.00000 0.00000
	CHANNELS 6 Xposition Yposition Zposition Zrotation Yrotation Xrotation 
	JOINT LHipJoint
	{
		OFFSET 0 0 0
		CHANNELS 3 Zrotation Yrotation Xrotation
		JOINT LeftUpLeg
		{
			OFFSET 1.39187 -1.60231 0.69152
			CHANNELS 3 Zrotation Yrotation Xrotation
			JOINT LeftLeg
			{
				OFFSET 2.43314 -6.68499 0.00000
				CHANNELS 3 Zrotation Yrotation Xrotation
				JOINT LeftFoot
				{
					OFFSET 2.32059 -6.37578 0.00000
					CHANNELS 3 Zrotation Yrotation Xrotation
					JOINT LeftToeBase
					{
						OFFSET 0.23021 -0.63250 1.71305
						CHANNELS 3 Zrotation Yrotation Xrotation
						End Site
						{
							OFFSET 0.00000 -0.00000 0.91647
						}
					}
				}
			}
		}
	}
	JOINT RHipJoint
	{
		OFFSET 0 0 0
		CHANNELS 3 Zrotation Yrotation Xrotation
		JOINT RightUpLeg
		{
			OFFSET -1.19407 -1.60231 0.69152
			CHANNELS 3 Zrotation Yrotation Xrotation
			JOINT RightLeg
			{
				OFFSET -2.44411 -6.71513 0.00000
				CHANNELS 3 Zrotation Yrotation Xrotation
				JOINT RightFoot
				{
					OFFSET -2.31924 -6.37207 0.00000
					CHANNELS 3 Zrotation Yrotation Xrotation
					JOINT RightToeBase
					{
						OFFSET -0.19473 -0.53502 1.87724
						CHANNELS 3 Zrotation Yrotation Xrotation
						End Site
						{
							OFFSET -0.00000 -0.00000 0.98293
						}
					}
				}
			}
		}
	}
	JOINT LowerBack
	{
		OFFSET 0 0 0
		CHANNELS 3 Zrotation Yrotation Xrotation
		JOINT Spine
		{
			OFFSET -0.01120 1.87307 0.09613
			CHANNELS 3 Zrotation Yrotation Xrotation
			JOINT Spine1
			{
				OFFSET 0.01099 1.87818 0.04834
				CHANNELS 3 Zrotation Yrotation Xrotation
				JOINT Neck
				{
					OFFSET 0 0 0
					CHANNELS 3 Zrotation Yrotation Xrotation
					JOINT Neck1
					{
						OFFSET 0.01702 1.40324 -0.12579
						CHANNELS 3 Zrotation Yrotation Xrotation
						JOINT Head
						{
							OFFSET -0.04239 1.38587 -0.01614
							CHANNELS 3 Zrotation Yrotation Xrotation
							End Site
							{
								OFFSET -0.02510 1.47031 -0.00154
							}
						}
					}
				}
				JOINT LeftShoulder
				{
					OFFSET 0 0 0
					CHANNELS 3 Zrotation Yrotation Xrotation
					JOINT LeftArm
					{
						OFFSET 2.95699 0.62343 0.11653
						CHANNELS 3 Zrotation Yrotation Xrotation
						JOINT LeftForeArm
						{
							OFFSET 4.68382 -0.00000 -0.00000
							CHANNELS 3 Zrotation Yrotation Xrotation
							JOINT LeftHand
							{
								OFFSET 2.98124 -0.00000 -0.00000
								CHANNELS 3 Zrotation Yrotation Xrotation
								JOINT LeftFingerBase
								{
									OFFSET 0 0 0
									CHANNELS 3 Zrotation Yrotation Xrotation
									JOINT LeftHandIndex1
									{
										OFFSET 0.70759 -0.00000 0.00000
										CHANNELS 3 Zrotation Yrotation Xrotation
										End Site
										{
											OFFSET 0.57048 -0.00000 0.00000
										}
									}
								}
								JOINT LThumb
								{
									OFFSET 0 0 0
									CHANNELS 3 Zrotation Yrotation Xrotation
									End Site
									{
										OFFSET 0.57919 -0.00000 0.57919
									}
								}
							}
						}
					}
				}
				JOINT RightShoulder
				{
					OFFSET 0 0 0
					CHANNELS 3 Zrotation Yrotation Xrotation
					JOINT RightArm
					{
						OFFSET -2.99027 0.88714 -0.02793
						CHANNELS 3 Zrotation Yrotation Xrotation
						JOINT RightForeArm
						{
							OFFSET -4.75876 -0.00000 -0.00000
							CHANNELS 3 Zrotation Yrotation Xrotation
							JOINT RightHand
							{
								OFFSET -2.93293 -0.00000 -0.00000
								CHANNELS 3 Zrotation Yrotation Xrotation
								JOINT RightFingerBase
								{
									OFFSET 0 0 0
									CHANNELS 3 Zrotation Yrotation Xrotation
									JOINT RightHandIndex1
									{
										OFFSET -0.83175 -0.00000 0.00000
										CHANNELS 3 Zrotation Yrotation Xrotation
										End Site
										{
											OFFSET -0.67058 -0.00000 0.00000
										}
									}
								}
								JOINT RThumb
								{
									OFFSET 0 0 0
									CHANNELS 3 Zrotation Yrotation Xrotation
									End Site
									{
										OFFSET -0.68082 -0.00000 0.68082
									}
								}
							}
						}
					}
				}
			}
		}
	}
}
MOTION
Frames: 15
Frame Time: 0.0333333
-8.2273 27.3098 0.3568 0 0 0 0 0 0 -21 0 0 0 0 0 0 0 0 0 0 0 0 0 0 21 0 0 0 0 0 0 0 0 0 0 0 0 0 0 0 0 0 0 0 0 0 0 -16 0 0 21 0 0 11 0 0 0 -8 0 0 0 0 0 0 0 0 0 0 0 0 0 0 0 0 0 0 0 0 8 0 0 0 0 0 0 0 0 0 0 0 0 0 0 0 0 0
1.3983 18.7130 1.0781 735.7280 130.2620 765.9250 0.0000 0.0000 0.0000 0.9936 -19.6541 -120.4741 37.0258 10.6532 148.8811 2.6970 -4.4061 -30.0755 0.2106 2.9543 8.1515 0.0000 0.0000 0.0000 26.3540 -18.1152 -86.9012 -37.1005 -10.5305 149.2876 -0.2808 19.4715 -15.9810 -0.8643 5.9281 -16.5760 -3.4398 5.6433 17.0747 -0.1484 7.2760 5.8433 0.3011 3.7462 -3.6416 -8.5560 -8.6207 -1.2800 14.4913 -7.2279 -30.9364 6.7617 -2.7363 -8.3038 0.0000 0.0000 0.0000 -103.7376 -48.1152 26.4573 9.8877 -16.5638 -1.4428 -0.0000 -0.0000 11.9912 27.4598 48.9457 21.3992 -7.1250 0.0000 -0.0000 -39.0083 80.2974 -32.4810 0.0000 0.0000 0.0000 102.6866 66.1294 78.1935 -7.7628 13.1676 -0.8973 0.0000 0.0000 46.6346 -16.8417 19.7917 -5.8523 7.1250 -0.0000 -0.0000 7.4178 -9.5120 6.1431
1.1715 18.7227 1.1780 735.6290 127.3410 765.9270 0.0000 0.0000 0.0000 0.4964 -19.6090 -120.9828 36.8239 10.9749 147.8048 2.8410 -3.8114 -31.0150 0.1669 2.6316 7.2546 0.0000 0.0000 0.0000 27.1386 -18.8716 -89.1384 -37.2624 -10.2576 150.1851 -1.0740 14.4760 -19.7576 -0.8590 5.9103 -16.5243 -3.7257 5.7279 17.8621 -0.2085 7.3030 5.9528 0.3154 3.7589 -3.9615 -9.8449 -8.3125 0.0615 15.3644 -6.6893 -32.3209 7.4561 -2.4205 -8.9901 0.0000 0.0000 0.0000 -103.8584 -49.0955 23.3786 9.7938 -16.4163 -1.4161 -0.0000 -0.0000 12.3845 26.0701 49.1962 20.3215 -7.1250 0.0000 -0.0000 -41.6177 79.8419 -34.3951 0.0000 0.0000 0.0000 104.6995 66.7965 78.0657 -8.4742 14.3185 -1.0663 0.0000 0.0000 47.5372 -15.0540 19.3300 -5.0875 7.1250 -0.0000 -0.0000 8.5542 -10.1908 6.9861
0.9648 18.7584 1.2777 734.9600 124.7880 765.6510 0.0000 0.0000 0.0000 0.4306 -19.5270 -121.5372 36.6234 11.2810 146.7663 3.0297 -3.9265 -32.0534 0.1931 2.8300 7.8059 0.0000 0.0000 0.0000 27.2573 -18.7498 -91.8205 -37.3575 -10.0924 150.7234 -1.4432 12.5428 -21.9434 -0.6008 4.9619 -13.8000 -4.9963 5.8755 18.0376 0.4675 7.3468 6.4935 1.7244 3.7749 -3.7085 -10.1318 -7.9621 1.0064 14.2572 -6.4690 -33.8655 7.2686 -2.1251 -9.8369 0.0000 -0.0000 0.0000 -105.7724 -50.6457 20.2079 9.7758 -16.3882 -1.4110 -0.0000 -0.0000 12.6384 25.6867 49.4762 20.0830 -7.1250 0.0000 -0.0000 -43.3029 79.8368 -35.8480 0.0000 -0.0000 0.0000 104.4791 68.6078 80.1651 -9.1295 15.3666 -1.2342 0.0000 0.0000 45.4971 -13.8156 19.2888 -4.6441 7.1250 -0.0000 -0.0000 9.3541 -10.3663 7.6233
0.7798 18.8163 1.3664 734.5230 122.4990 765.9800 0.0000 0.0000 0.0000 1.0584 -19.3605 -122.5444 36.2608 11.8050 144.9544 3.1157 -3.3331 -32.6443 0.0206 0.9261 2.5456 0.0000 0.0000 0.0000 27.1544 -17.3094 -94.5465 -37.3698 -10.0709 150.7932 -1.5780 9.5562 -22.5371 -0.4474 4.2915 -11.8982 -5.5411 5.7795 18.0829 0.6860 7.1666 6.8827 2.3148 3.6778 -3.3872 -9.7544 -7.5681 2.3365 13.2123 -6.0538 -36.1471 7.0449 -1.7449 -11.1412 0.0000 0.0000 0.0000 -105.5833 -52.1298 17.2682 9.9563 -16.6712 -1.4624 -0.0000 -0.0000 12.1836 22.9145 48.5985 17.5925 -7.1250 0.0000 -0.0000 -42.1437 78.1459 -33.5304 0.0000 0.0000 0.0000 102.9050 70.3969 85.6389 -10.4890 17.5009 -1.6189 0.0000 0.0000 38.2742 -12.5511 18.8755 -4.1195 7.1250 -0.0000 -0.0000 10.1649 -10.9092 8.1908
0.6257 18.8734 1.4550 734.6250 120.3100 766.5210 0.0000 0.0000 0.0000 1.5794 -17.9559 -122.7373 36.0277 12.1234 143.8301 3.4055 -4.6486 -33.9461 0.0165 0.8305 2.2827 0.0000 0.0000 0.0000 27.2120 -14.4209 -96.0424 -37.3581 -10.0915 150.7263 -1.5202 6.7616 -22.0851 -0.2966 3.5018 -9.6790 -5.6899 5.5266 18.7544 0.3218 6.7249 6.7224 2.0454 3.4647 -3.8399 -9.8082 -7.0261 3.1892 13.0044 -5.3367 -37.1197 7.0651 -1.3482 -11.8367 -0.0000 -0.0000 0.0000 -103.0198 -53.0641 12.9428 9.8803 -16.5521 -1.4407 -0.0000 -0.0000 11.9161 21.6162 48.3731 16.4991 -7.1250 0.0000 -0.0000 -42.5478 77.4741 -33.3350 -0.0000 -0.0000 0.0000 106.7630 70.2017 87.7126 -11.2310 18.6414 -1.8491 0.0000 0.0000 37.6732 -12.0498 20.1714 -4.2099 7.1250 -0.0000 -0.0000 10.5090 -9.6640 8.7481
0.4842 18.9752 1.5247 734.3680 118.4150 767.1970 0.0000 0.0000 0.0000 2.1681 -17.4847 -123.3059 35.6682 12.5893 142.1500 3.4438 -4.2199 -34.2226 0.0069 -0.5367 -1.4749 0.0000 0.0000 0.0000 26.7709 -10.4277 -97.9552 -37.2522 -10.2751 150.1278 -1.6194 4.2796 -23.0593 -0.2598 3.2796 -9.0580 -5.9468 5.0283 18.9030 -0.0625 5.9750 6.5649 1.9396 3.0966 -4.0057 -8.8300 -6.5113 3.6513 12.1360 -4.6708 -37.9256 6.5969 -1.0398 -12.4734 0.0000 -0.0000 0.0000 -100.9509 -54.6198 3.2091 9.5441 -16.0234 -1.3464 -0.0000 -0.0000 15.5401 15.9387 46.3385 11.6732 -7.1250 0.0000 -0.0000 -41.7638 73.9567 -29.8420 0.0000 -0.0000 0.0000 109.1915 70.0523 92.6944 -12.4870 20.5310 -2.2702 0.0000 0.0000 31.9382 -12.9232 18.3705 -4.1362 7.1250 -0.0000 -0.0000 9.9157 -11.3792 7.8864
0.3661 19.1395 1.5836 733.6780 116.5480 767.1230 0.0000 0.0000 0.0000 2.4902 -17.5626 -122.8518 35.2124 13.1405 140.1034 3.5121 -3.9277 -34.6320 0.0073 -0.5503 -1.5122 0.0000 0.0000 0.0000 25.2858 -7.5413 -98.9152 -37.0425 -10.6259 148.9716 -1.5479 3.5093 -22.6487 -0.2077 2.9341 -8.0953 -6.3532 4.6201 19.3804 -0.3861 5.3295 6.6374 1.9455 2.7855 -4.1201 -9.0373 -5.8759 3.0685 12.0954 -3.6249 -38.0778 6.5235 -0.4908 -12.5664 0.0000 -0.0000 0.0000 -99.5706 -56.6854 -6.8064 9.1453 -15.3918 -1.2384 -0.0000 -0.0000 18.7857 14.0889 45.2871 10.1126 -7.1250 0.0000 -0.0000 -40.9462 72.5708 -28.0701 0.0000 -0.0000 0.0000 111.8720 69.6734 94.4015 -13.3352 21.7764 -2.5763 0.0000 0.0000 29.6452 -12.1039 17.9037 -3.7719 7.1250 -0.0000 -0.0000 10.4461 -11.9232 8.2034
0.2678 19.3102 1.6332 733.3090 114.9230 767.4010 0.0000 0.0000 0.0000 2.9107 -17.6256 -122.4340 34.7672 13.6413 138.1810 3.5445 -2.9496 -34.9992 0.0787 -1.8093 -4.9790 0.0000 0.0000 0.0000 23.7986 -4.9076 -99.2077 -36.8012 -11.0102 147.6859 -1.5799 4.5688 -22.7238 -0.1975 2.8615 -7.8935 -5.8253 4.0629 19.8254 -1.2778 4.6015 6.3861 0.8389 2.4438 -4.4521 -7.7201 -5.3360 2.6683 11.3900 -2.7911 -37.9056 5.9084 -0.2186 -12.5981 0.0000 -0.0000 0.0000 -95.2723 -57.6590 -13.9052 8.7143 -14.7040 -1.1265 -0.0000 -0.0000 20.4930 11.9754 43.9114 8.3686 -7.1250 0.0000 -0.0000 -40.0049 70.8690 -25.9647 0.0000 -0.0000 0.0000 114.5505 68.5261 95.2462 -14.0464 22.8011 -2.8461 0.0000 0.0000 27.1904 -12.4578 17.1974 -3.7372 7.1250 -0.0000 -0.0000 10.2099 -12.5984 7.8660
0.1914 19.5431 1.6622 733.2610 113.3270 767.9390 0.0000 0.0000 0.0000 3.1563 -17.3515 -121.2908 34.1555 14.2759 135.6456 3.5767 -3.2982 -35.0900 0.0770 -1.7897 -4.9247 0.0000 0.0000 0.0000 21.9584 -2.0330 -99.1435 -36.4116 -11.5915 145.6982 -1.6881 4.3304 -23.5563 -0.2961 3.4988 -9.6706 -6.3892 3.9489 19.6795 -1.0904 4.3395 6.2715 1.4215 2.3086 -4.5343 -7.4828 -4.7705 2.7749 10.2794 -2.3806 -37.5996 5.3777 0.0065 -12.5909 0.0000 -0.0000 0.0000 -93.2937 -57.7037 -20.2064 8.4098 -14.2149 -1.0505 -0.0000 -0.0000 19.2476 13.4609 43.3730 9.3347 -7.1250 0.0000 -0.0000 -37.3420 70.9823 -24.1707 0.0000 -0.0000 0.0000 112.5025 67.7356 94.5796 -15.0249 24.1808 -3.2361 0.0000 0.0000 23.3122 -13.0513 15.9299 -3.6405 7.1250 -0.0000 -0.0000 9.8124 -13.8196 7.2944
0.1320 19.8032 1.6860 733.2130 111.8540 768.5630 0.0000 0.0000 0.0000 3.1221 -17.3021 -120.1092 33.5390 14.8607 133.1948 3.7143 -3.6778 -35.7122 0.0079 -0.5743 -1.5781 0.0000 0.0000 0.0000 20.1726 0.7102 -99.0507 -35.9791 -12.1882 143.5990 -1.6034 4.6168 -22.8935 -0.1129 2.1665 -5.9659 -6.6852 3.6924 19.3067 -1.1204 3.9877 6.4040 1.6683 2.1276 -4.1853 -6.7769 -4.3030 2.1879 8.9960 -1.9638 -37.4325 4.6745 0.2468 -12.5050 0.0000 -0.0000 0.0000 -92.0699 -58.6163 -28.3008 7.7991 -13.2267 -0.9056 -0.0000 -0.0000 24.6742 19.3058 44.1805 13.7197 -7.1250 0.0000 -0.0000 -32.6554 73.6511 -22.7510 0.0000 -0.0000 0.0000 112.0576 66.6938 92.8606 -16.0428 25.5787 -3.6644 0.0000 0.0000 21.2855 -12.7595 14.8531 -3.3222 7.1250 -0.0000 -0.0000 10.0115 -14.9260 7.2077
0.0781 20.0818 1.6886 733.2140 110.5660 769.5790 0.0000 0.0000 0.0000 3.3383 -17.5945 -119.2525 32.7626 15.5286 130.2333 3.4582 -1.6682 -34.8535 0.1210 -2.2427 -6.1769 0.0000 0.0000 0.0000 18.3101 3.2976 -98.7909 -35.4159 -12.8996 141.0062 -1.6751 4.2680 -23.4715 -0.2457 3.1899 -8.8079 -6.8085 3.3604 18.7553 -1.2068 3.5293 6.1382 1.7734 1.8953 -4.1502 -6.7327 -3.6574 1.5024 8.4528 -1.2486 -36.3789 4.3305 0.5587 -12.0031 0.0000 -0.0000 0.0000 -91.3539 -57.7622 -27.5312 7.7574 -13.1589 -0.8961 -0.0000 -0.0000 27.1668 26.3690 45.4890 19.4692 -7.1250 0.0000 -0.0000 -27.2451 77.3774 -20.9081 0.0000 -0.0000 0.0000 112.2847 64.8941 89.3483 -16.7111 26.4754 -3.9577 0.0000 0.0000 20.5114 -11.3612 14.5831 -2.8962 7.1250 -0.0000 -0.0000 10.9588 -15.2991 7.8255
0.0557 20.4427 1.6948 733.0090 109.4950 769.4550 0.0000 0.0000 0.0000 3.4274 -17.8798 -116.4921 31.8883 16.2008 127.0360 3.4353 -1.9991 -34.6524 0.0890 -1.9242 -5.2962 0.0000 0.0000 0.0000 16.9943 5.2355 -96.5223 -34.6253 -13.7937 137.5826 -1.7757 3.9349 -24.2495 -0.3524 3.8142 -10.5545 -7.0212 3.1885 19.1863 -1.2454 3.2367 6.1750 1.8998 1.7586 -4.3168 -6.4542 -3.1223 1.0984 7.9565 -0.6374 -35.6684 4.0033 0.8093 -11.6992 0.0000 -0.0000 0.0000 -91.0411 -56.9373 -25.8661 7.5655 -12.8461 -0.8529 -0.0000 -0.0000 30.9250 26.6170 44.0585 19.2127 -7.1250 0.0000 -0.0000 -22.9988 76.3070 -17.0809 0.0000 -0.0000 0.0000 111.0445 63.3356 87.3375 -17.6063 27.6501 -4.3650 0.0000 0.0000 14.0805 -13.1914 11.9555 -2.7798 7.1250 -0.0000 -0.0000 9.7567 -17.8142 6.3977
0.0290 20.7750 1.6861 733.9250 108.2920 771.2470 0.0000 0.0000 0.0000 3.3213 -17.8613 -114.8679 31.0317 16.7872 124.0197 3.4272 -0.6140 -34.9733 0.1002 -2.0413 -5.6198 0.0000 0.0000 0.0000 15.5810 8.3496 -95.4558 -33.7492 -14.6670 134.0199 -1.8185 2.1024 -24.9313 -0.5509 4.7546 -13.2100 -7.1472 3.0935 18.7336 -1.3534 3.0814 5.9330 1.9051 1.6763 -4.3290 -6.0292 -2.3678 0.9919 7.2648 0.2511 -35.0822 3.5658 1.1937 -11.5328 0.0000 -0.0000 0.0000 -90.5633 -56.3393 -26.2280 7.1874 -12.2273 -0.7708 -0.0000 -0.0000 35.7046 25.2562 41.6519 17.4080 -7.1250 0.0000 -0.0000 -19.7429 73.7110 -13.5469 0.0000 -0.0000 0.0000 110.4974 62.1711 83.1902 -17.8826 28.0066 -4.4940 0.0000 0.0000 14.1000 -11.9413 12.0770 -2.5336 7.1250 -0.0000 -0.0000 10.6206 -17.7675 6.9947
0.0012 21.1582 1.6623 734.6100 107.2110 772.6380 0.0000 0.0000 0.0000 3.0669 -18.1932 -112.8376 29.8347 17.5018 119.9605 3.2264 0.4475 -34.2304 0.0704 -1.7121 -4.7106 0.0000 0.0000 0.0000 14.2755 10.6559 -93.9825 -32.7297 -15.5553 130.1108 -1.7591 0.9019 -24.8288 -0.7617 5.5737 -15.5522 -6.9798 2.8267 18.6154 -1.5339 2.7400 5.7615 1.6979 1.5098 -4.4088 -5.9834 -1.7565 0.5487 6.6710 0.9455 -34.5107 3.2527 1.5478 -11.2780 0.0000 0.0000 0.0000 -89.8743 -55.7598 -22.4707 7.1434 -12.1549 -0.7615 -0.0000 -0.0000 34.2414 23.7173 41.0418 16.0911 -7.1250 0.0000 -0.0000 -20.7306 72.6230 -13.7572 0.0000 0.0000 0.0000 110.7791 60.8814 79.5391 -18.0739 28.2517 -4.5842 0.0000 0.0000 16.1672 -10.9882 11.3896 -2.1959 7.1250 -0.0000 -0.0000 11.3057 -18.5070 7.2752
